<?xml version="1.0" encoding="utf-8"?>
<!-- Generator: Adobe Illustrator 26.3.0, SVG Export Plug-In . SVG Version: 6.00 Build 0)  -->
<svg version="1.1" id="Layer_1" xmlns="http://www.w3.org/2000/svg" xmlns:xlink="http://www.w3.org/1999/xlink" x="0px" y="0px"
	 viewBox="0 0 200 200" style="enable-background:new 0 0 200 200;" xml:space="preserve">
<style type="text/css">
	.st0{fill:#E64C1D;}
</style>
<g>
	<g>
		<polygon class="st0" points="72,124.7 83.5,136.2 99.7,120 115.4,135.7 126.9,124.2 126.9,124.2 99.7,97 		"/>
		<polygon class="st0" points="124.7,83.1 99.7,58.1 74.7,83.1 59.2,67.6 47.8,79.1 75,106.2 99.7,81.5 124.5,106.2 152.2,78.6 
			140.7,67.1 		"/>
		<path class="st0" d="M182,0L18,0l0,118.2h0c0,11.2,2.3,22,6.4,31.8c6.2,14.7,16.6,27.2,29.7,36c13.1,8.8,28.9,14,45.9,14
			c11.3,0,22.1-2.3,31.9-6.4c14.7-6.2,27.2-16.6,36.1-29.7c8.8-13,14-28.8,14-45.7h0L182,0z M136.8,172.6
			c-10.5,7.1-23.1,11.2-36.8,11.2c-9.1,0-17.7-1.8-25.6-5.2c-11.8-5-21.8-13.3-28.9-23.8c-7.1-10.5-11.2-23.1-11.2-36.7l0-101.8
			l131.5,0l0,101.8c0,9.1-1.8,17.7-5.2,25.6C155.6,155.4,147.3,165.5,136.8,172.6z"/>
	</g>
</g>
</svg>
