<svg  xmlns="http://www.w3.org/2000/svg" width="67.1" height="45.1" viewBox="0 0 67.1 45.1">

      <path  d="M63.9,36.4c0-.3,0-.6,0-.9,0-4,0-8.1,0-12.1,0-.1-.1-.3-.2-.4-1.2-1.1-2.4-2.1-3.6-3.2-.1-.1-.3-.1-.5-.1-2.9,0-5.9,0-8.8,0-1.3,0-2.6,0-4,0-1.4,0-2.3-.9-2.4-2.2,0-.2,0-.4,0-.6,0-4.4,0-8.9,0-13.3,0,0,0-.1,0-.3-.1,0-.3,0-.4,0-9.1,0-18.3,0-27.4,0-.3,0-.7,0-1-.2-.6-.2-1-.9-1-1.5,0-.7,.5-1.3,1.1-1.5,.3,0,.5-.1,.8-.1C26.1,0,35.7,0,45.3,0c1.3,0,2.4,.9,2.4,2.3,0,.4,0,.8,0,1.3,.1,0,.2,0,.3,0,1.4,0,2.9,0,4.3,0,2.9,0,5.2,1.6,6.2,4.3,1,2.8,2.1,5.5,3.1,8.3,.2,.5,.5,1,.9,1.4,1.2,1.1,2.4,2.3,3.7,3.4,.6,.6,.9,1.3,.9,2.1,0,4.7,0,9.5,0,14.2,0,1-.3,1.9-1.3,2.3-.3,.1-.6,.2-1,.2-1.4,0-2.9,0-4.3,0-.2,0-.3,0-.4,.3-.8,2.8-3.2,4.8-6.2,5.1-3,.3-5.8-1.4-7-4.1-.1-.3-.3-.7-.4-1,0-.2-.1-.2-.3-.2-3.1,0-6.2,0-9.3,0-.4,0-.8,0-1.2,0-.2,0-.3,0-.4,.3-.8,2.5-2.4,4.2-5,4.8-3.6,.9-7.2-1-8.5-4.5-.2-.6-.2-.6-.9-.6-1.6,0-3.1,0-4.7,0-.6,0-1.1-.2-1.5-.7-.4-.5-.4-1.1-.1-1.7,.3-.6,.9-.9,1.6-.9,1.7,0,3.3,0,5,0,.1,0,.2,0,.4,0,.4-1.6,1.2-2.8,2.4-3.8,3.5-2.9,8.9-1.8,10.8,2.4,.2,.4,.3,.8,.5,1.2,0,.2,.1,.2,.3,.2,3.5,0,7,0,10.6,0,.2,0,.3,0,.3-.3,.7-2.4,2.2-3.9,4.5-4.8,3.5-1.3,7.9,.6,9.1,4.8,0,.1,0,.3,.3,.3,1.1,0,2.2,0,3.3,0,0,0,0,0,.1,0Zm-5.6-20c0-.2,0-.3-.1-.4-.9-2.3-1.7-4.6-2.6-6.9-.6-1.5-1.6-2.2-3.3-2.2-1.4,0-2.8,0-4.2,0-.1,0-.2,0-.3,0v9.5h10.5Zm-25.8,21.7c0-2.1-1.7-3.8-3.8-3.8-2.3,0-3.9,2-3.9,3.7,0,2.1,1.7,3.9,3.8,3.9,2.1,0,3.8-1.7,3.8-3.8Zm21,3.8c2,0,3.7-1.7,3.8-3.6,0-2.2-1.7-3.9-3.8-4-2.2,0-3.8,1.9-3.8,3.7,0,2.1,1.7,3.8,3.8,3.8Z"/>
      <path  d="M14.7,18.2c4.3,0,8.6,0,12.9,0,.7,0,1.3,.2,1.6,.9,.5,.9,0,1.9-.9,2.3-.3,0-.6,.1-.8,.1-8.6,0-17.1,0-25.7,0-.7,0-1.3-.3-1.6-.9-.5-1.1,.2-2.3,1.4-2.3,.4,0,.8,0,1.2,0,4,0,7.9,0,11.9,0h0Z"/>
      <path  d="M18.5,12.4c-3,0-6,0-9,0-.8,0-1.5-.2-1.8-1-.4-1.1,.3-2.1,1.3-2.2,.5,0,1,0,1.5,0,5.7,0,11.3,0,17,0,1,0,1.7,.4,1.9,1.3,.2,.9-.5,1.9-1.4,2-.1,0-.3,0-.4,0-3,0-6,0-9,0h0Z"/>
      <path  d="M11.7,27.3c1.7,0,3.4,0,5.1,0,.2,0,.4,0,.7,0,.8,0,1.4,.7,1.5,1.5,0,.9-.5,1.5-1.4,1.7-.2,0-.4,0-.6,0-3.6,0-7.2,0-10.8,0-.7,0-1.3-.2-1.7-.8-.6-1,0-2.3,1.2-2.4,.4,0,.8,0,1.2,0,1.6,0,3.1,0,4.7,0h0Z"/>
   
</svg>