<?xml version="1.0" encoding="UTF-8"?>
<svg id="uuid-dbed8402-ad02-49f3-bc2c-b8574dba3db8" data-name="Layer 2" xmlns="http://www.w3.org/2000/svg" width="61.5" height="67.2" viewBox="0 0 61.5 67.2">
  <defs>
    <style>
      .uuid-e240db48-a3a4-4c9b-a73d-7197ecabc33b {
        fill: #fff;
      }
    </style>
  </defs>
  <g id="uuid-f5bcf611-3375-40ea-a44d-28a626c34e10" data-name="Capa 1">
    <g>
      <path class="uuid-e240db48-a3a4-4c9b-a73d-7197ecabc33b" d="M17.1,5c.2-1,.6-1.8,1.2-2.6C20.2,0,23.2-.6,25.7,.6c1.7,.8,2.8,2.2,3.2,4,0,.3,.2,.4,.5,.4,1.3,0,2.5,0,3.8,0,1.5,0,2.7,.8,3.1,2.2,.1,.4,.1,.7,.2,1.1,0,.2,0,.5,0,.8,.1,0,.2,0,.4,0,2.5,0,5,0,7.6,0,.2,0,.4,0,.6,0,.7,.1,1,.6,1.1,1.3,0,1,0,1.9,0,2.9,0,1.3,0,2.6,0,3.8,0,.5-.2,.9-.7,1.1-.7,.4-1.7,0-1.9-.9,0-.2,0-.4,0-.6,0-1.6,0-3.2,0-4.8,0,0,0-.1,0-.2h-6.9c0,.4,0,.8,0,1.2-.2,1.6-1.5,2.7-3.1,2.8-.2,0-.4,0-.6,0-6.6,0-13.2,0-19.8,0-1.3,0-2.3-.5-3-1.6-.4-.6-.4-1.3-.4-1.9,0-.4,0-.4-.4-.4-2.1,0-4.2,0-6.3,0-.2,0-.3,0-.3,.3,0,6.2,0,12.3,0,18.5,0,11.2,0,22.4,0,33.5,0,.6,0,.6,.6,.6H35.8c-.1-.1-.2-.2-.3-.2-2.8-1.9-4.9-4.5-6.2-7.6-1-2.4-1.4-4.9-1.2-7.4,.2-3,1.2-5.7,2.9-8.1,1.8-2.6,4.1-4.7,7.1-5.9,1.7-.7,3.4-1.2,5.2-1.3,.3,0,.2-.2,.2-.3,0-1.4,0-2.8,0-4.3,0-.3,0-.5,0-.8,0-.7,.6-1.2,1.3-1.2,.7,0,1.2,.5,1.2,1.2,0,1.5,0,3.1,0,4.6,0,.7,0,.7,.6,.7,2.5,.3,4.8,1.1,6.9,2.4,2.4,1.5,4.3,3.5,5.7,6,1.7,3,2.3,6.2,2.1,9.6-.1,1.4-.4,2.8-.9,4.2-1.3,3.7-3.7,6.5-7,8.6-2.7,1.7-5.6,2.5-8.7,2.5-14.4,0-28.7,0-43.1,0-.2,0-.4,0-.6,0C.4,67,0,66.5,0,65.7c0-.9,0-1.9,0-2.8,0-12,0-24.1,0-36.1,0-5.3,0-10.5,0-15.8,0-.2,0-.5,0-.7,0-.8,.5-1.2,1.3-1.3,.3,0,.5,0,.8,0,2.4,0,4.8,0,7.1,0,.3,0,.4,0,.4-.4,0-.5,0-.9,.1-1.4,.4-1.4,1.5-2.3,3.1-2.3,1.3,0,2.6,0,3.9,0,.1,0,.2,0,.4,0Zm27.6,31.4c-7.6,0-13.8,6.5-14,13.6-.3,8.5,6.7,14.6,14.1,14.6,7.3,0,13.9-5.9,14-14,0-8-6.6-14.3-14.2-14.1ZM23,13h0c1.5,0,2.9,0,4.4,0,1.9,0,3.8,0,5.7,0,.6,0,.7-.1,.7-.6,0-1.4,0-2.7,0-4.1,0-.5-.1-.6-.6-.7-.2,0-.3,0-.5,0-1.7,0-3.3,0-5,0-.7,0-1.2-.5-1.3-1.2,0-.2,0-.3,0-.5-.1-1.6-1.5-3-3.1-3.2-1.7-.2-3.3,1-3.7,2.6,0,.4,0,.8-.1,1.1,0,.7-.5,1.2-1.2,1.3-.3,0-.5,0-.8,0-1.5,0-3.1,0-4.6,0-.6,0-.7,0-.7,.7,0,1.3,0,2.5,0,3.8,0,.9,0,.9,.9,.9,3.3,0,6.6,0,9.9,0Z"/>
      <path class="uuid-e240db48-a3a4-4c9b-a73d-7197ecabc33b" d="M23.3,26.8c-3.9,0-7.8,0-11.7,0-.3,0-.6,0-.8,0-.6-.2-1-.7-.9-1.3,0-.6,.5-1.1,1.1-1.2,.2,0,.4,0,.7,0,7.8,0,15.6,0,23.5,0,.6,0,1.2,.1,1.5,.7,.4,.8,0,1.8-1,1.9-.2,0-.4,0-.7,0-3.9,0-7.8,0-11.6,0h0Z"/>
      <path class="uuid-e240db48-a3a4-4c9b-a73d-7197ecabc33b" d="M20.3,36.4c-2.9,0-5.8,0-8.7,0-.2,0-.5,0-.7,0-.6-.1-1-.7-.9-1.4,0-.6,.5-1.1,1.1-1.2,.2,0,.5,0,.7,0,5.8,0,11.5,0,17.3,0,.7,0,1.2,.1,1.5,.8,.4,.8-.1,1.7-1,1.8-.2,0-.5,0-.7,0-2.9,0-5.7,0-8.6,0Z"/>
      <path class="uuid-e240db48-a3a4-4c9b-a73d-7197ecabc33b" d="M17.2,52.9c2,0,3.9,0,5.9,0,.6,0,1,.2,1.3,.7,.4,.8,0,1.6-.9,1.8-.1,0-.3,0-.5,0-3.9,0-7.8,0-11.7,0-.6,0-1.1-.2-1.3-.7-.5-.9,.1-1.9,1.1-1.9,.9,0,1.8,0,2.7,0,1.1,0,2.2,0,3.3,0h0Z"/>
      <path class="uuid-e240db48-a3a4-4c9b-a73d-7197ecabc33b" d="M17.3,43.3c1.8,0,3.6,0,5.5,0,.2,0,.4,0,.6,0,.7,0,1.2,.6,1.2,1.3,0,.7-.5,1.3-1.2,1.3-1.2,0-2.5,0-3.7,0-2.6,0-5.2,0-7.7,0-.3,0-.6,0-.8,0-.7,0-1.2-.6-1.2-1.3,0-.7,.5-1.2,1.2-1.3,.3,0,.7,0,1,0,1.7,0,3.5,0,5.2,0h0Z"/>
      <path class="uuid-e240db48-a3a4-4c9b-a73d-7197ecabc33b" d="M43.5,22.8c0-.7,.6-1.3,1.3-1.3,.7,0,1.3,.6,1.3,1.3,0,.7-.6,1.3-1.3,1.3-.7,0-1.3-.6-1.3-1.3Z"/>
      <path class="uuid-e240db48-a3a4-4c9b-a73d-7197ecabc33b" d="M46.1,43.6c0,.2,0,.3,0,.4,0,1.5,0,3.1,0,4.6,0,.3,0,.4,.3,.5,.9,.3,1.8,.6,2.5,1.3,1.6,1.5,2.1,3.3,1.6,5.4-.6,2.2-2,3.6-4.1,4.2-.2,0-.3,.1-.3,.4,0,.2,0,.4,0,.6,0,.7-.6,1.1-1.3,1.1-.6,0-1.2-.5-1.3-1.2,0,0,0,0,0,0q0-.7-.7-.7c-1.2-.1-2.3-.7-3.2-1.4-.6-.4-.7-1.2-.3-1.7,.4-.6,1.1-.8,1.7-.4,.1,0,.3,.1,.4,.2,.6,.4,1.3,.7,2.1,.8,0-.1,0-.2,0-.3,0-2.1,0-4.2,0-6.4,0-.1-.1-.2-.2-.3-.5-.3-1.1-.6-1.6-.9-2.6-1.6-2.6-4.4-1.5-6.4,.7-1.2,1.7-1.9,3-2.3,.2,0,.3-.1,.3-.4,0-.8,.3-1.3,1-1.5,.7-.2,1.4,.3,1.5,1,0,.1,0,.2,0,.4,0,.2,0,.3,.3,.4,.9,.2,1.7,.5,2.4,1,.4,.3,.6,.6,.7,1,0,.6-.2,1.1-.6,1.3-.5,.3-1,.2-1.4-.1-.4-.3-.8-.5-1.3-.7Zm0,13.7c1.3-.5,2.1-2.1,2-3.3-.1-1.1-1-2.1-2-2.3v5.6Zm-2.6-13.5c-.8,.3-1.4,1.3-1.4,2.3,0,.7,.7,1.5,1.4,1.6v-3.9Z"/>
    </g>
  </g>
</svg>