<?xml version="1.0" encoding="UTF-8"?>
<svg id="uuid-d27aa6c9-fec6-4fb8-9167-33b2c4f7dcb5" data-name="Layer 2" xmlns="http://www.w3.org/2000/svg" width="67.2" height="67.1" viewBox="0 0 67.2 67.1">
  <defs>
    <style>
      .uuid-05c2ae3a-df65-4e29-8f23-a31ce8a9f345 {
        fill: #fff;
      }
    </style>
  </defs>
  <g id="uuid-7d32557d-5484-4dd9-b7cc-7e9e683190d3" data-name="Capa 1">
    <g>
      <path class="uuid-05c2ae3a-df65-4e29-8f23-a31ce8a9f345" d="M54.9,64.9h2c0-.1-.1-.2-.2-.3-1.2-1.8-.6-4.1,1.4-4.9,.3-.1,.4-.2,.3-.6-.5-1.8,.6-3.7,2.5-4.1,1.8-.4,3.6,.7,4,2.5,.1,.6,.1,1.2,0,1.7,0,.3,0,.4,.2,.5,2,.8,2.7,3,1.7,4.7-.1,.2-.2,.4-.4,.6,.3,0,.5,0,.7,0,.2,0,.3,0,.3,.2,0,.6,0,1.3,0,2H0v-2.1s0,0,0,0c.5,0,.8-.2,1.1-.5,1.5-1.5,2.9-2.9,4.4-4.4,0,0,.1-.1,.2-.2,.7-.6,1.3-.6,1.9,0,.6,.6,1.2,1.2,1.8,1.9,1,1,2.1,2.1,3.1,3.1,0,0,.3,.2,.4,.2,.4,0,.9,0,1.3,0,.2,0,.3,0,.3-.3,0-.9,0-1.7,0-2.6,0-15.6,0-31.2,0-46.8q0-.7,.7-.7c.5,0,.9,0,1.4,0,0,0,0,0,.1,0v4.4c.2,0,.3,0,.4,0,4.6,0,9.2,0,13.8,0,.3,0,.4,0,.4,.4,0,.6,0,1.2,0,1.8h-14.5v3.4c0,0,.1,0,.2,0,2.1,0,4.2,0,6.3,0,.2,0,.2,0,.2-.2,0-.2,0-.4,0-.7,0,0,.1-.2,.2-.2,.7,0,1.3,0,2,0,0,.3,0,.6,0,.9,0,.2,0,.2,.2,.2,2.1,0,4.3,0,6.4,0,0,0,0,0,.1,0,0-.5,0-1.1,0-1.7,0-.6,0-.6,.6-.6,.5,0,.9,0,1.4,0,.2,0,.3,0,.3,.3,0,.6,0,1.1,0,1.7,0,.2,0,.3,.3,.3,2.1,0,4.2,0,6.2,0,.2,0,.2,0,.2-.2,0-1.3,0-2.6,0-3.9,0-.3,0-.4,.4-.4,.5,0,1,0,1.5,0,.3,0,.4,.1,.3,.4,0,.6,0,1.2,0,1.8,0,13.8,0,27.6,0,41.4,0,.3,0,.6,0,.9,0,.2,0,.3,.3,.3,1.3,0,2.6,0,3.9,0,.3,0,.4,0,.4-.4,0-13.8,0-27.6,0-41.4,0-3.5,0-7,0-10.5,0-.1,0-.2,0-.4-.1,0-.2,0-.3,0-.6,0-1.1,0-1.7,0-.9,0-1.3-.5-1.3-1.3,0-.3,0-.7,0-.9-.2-.2-.6,0-.9,0-12.1,0-24.2,0-36.3,0-.2,0-.5,0-.8,0,0,.2,0,.4,0,.6,0,6.2,0,12.4,0,18.5,0,.4-.1,.8,0,1.1,.1,.3,.5,.4,.8,.6,1.5,1.1,1.8,3.2,.7,4.6-.2,.2-.1,.3,0,.5,.8,1.1,1.6,2.1,2.4,3.2,.4,.5,.5,1,.5,1.6,0,1.2,0,2.4,0,3.7,0,.4-.1,.8-.4,1.1-.7,.7-1.4,1.4-2.1,2.1-.3,.3-.7,.4-1.1,.4-1.3,0-2.7,0-4,0-.5,0-.8-.1-1.1-.5-.6-.6-1.3-1.3-1.9-1.9-.4-.4-.5-.8-.5-1.4,0-1.2,0-2.4,0-3.5,0-.6,.2-1,.5-1.5,.8-1.1,1.6-2.2,2.4-3.2,.2-.2,.2-.3,0-.6-.4-.5-.7-1.4-.6-1.9h2.1c0,0,0,.2,0,.3,.2,.6,.6,.9,1.2,.8,.5,0,.9-.5,.9-.9,0-.6-.2-1.1-.8-1.3-.1,0-.3,0-.4,0-.7-.1-1-.5-1-1.2,0,0,0-.2,0-.3,0-6.8,0-13.6,0-20.4v-.4c-.9,0-1.8,0-2.7,0-.2,0-.4,0-.7,0-.7,0-1.1-.5-1.1-1.2,0-1.4,0-2.8,0-4.2,0-.9,.5-1.3,1.4-1.3,.4,0,.9,0,1.3,0,13.8,0,27.6,0,41.4,0,.2,0,.5,0,.7,0,0-.5,0-1,0-1.5,0-.2,0-.4,0-.6,0-.7,.4-1.1,1-1.2,.2,0,.4,0,.6,0,3.4,0,6.8,0,10.2,0,.2,0,.4,0,.6,0,.6,.1,.9,.4,1,1,0,.6,0,1.3,0,1.9,0,.1,0,.2,0,.3,.4,0,.7,0,1,0,2.1,0,4.2,0,6.3,0,0,0,.2,0,.3,0,.9,0,1.3,.4,1.3,1.3,0,1.4,0,2.8,0,4.2,0,.8-.5,1.2-1.4,1.2-1.2,0-2.5,0-3.7,0-1.2,0-2.5,0-3.8,0,0,0,0,.2,0,.3,0,.3,0,.5,0,.8,0,.8-.5,1.2-1.3,1.2-.6,0-1.3,0-1.9,0,0,0,0,0,0,0v52.6Zm-13.4-24.6c-.1,0-.3,0-.4,0-2.4,0-4.7,0-7.1,0-.5,0-.9-.1-1.3-.5-1.2-1.2-2.4-2.4-3.6-3.6-.2-.2-.4-.3-.7-.3-1.1,0-2.2,0-3.3,0-.9,0-1.4-.4-1.4-1.3,0,0,0-.2,0-.3,0-1,0-2,0-3,0,0,0-.2,0-.3h-6.7v33.9h24.6v-24.6Zm0-2.3c0-.5,0-.9,0-1.4,0-3.2,0-6.4,0-9.6,0-.2-.1-.2-.3-.2-1.9,0-3.9,0-5.8,0-.7,0-.7,0-.7,.7,0,3.1,0,6.2,0,9.3,0,.4,0,.8,0,1.2h6.8Zm-15.7-11.1c0,.1,0,.2,0,.2,0,2,0,4,0,6.1,0,.5,0,.5,.4,.5,.9,0,1.7,0,2.6,0,.5,0,1,.2,1.4,.6,.7,.7,1.4,1.4,2.1,2.1,0,0,.1,.1,.2,.2v-9.6h-6.7Zm-16.8,14.6c-.1,0-.1,0-.2,0-2.1,0-4.2,0-6.3,0-.2,0-.3,.1-.3,.3,0,.8,0,1.6,0,2.4,0,.2,0,.3,.2,.5,.4,.4,.8,.8,1.2,1.2,0,0,.2,.2,.4,.2,1,0,2.1,0,3.1,0,.1,0,.3,0,.4-.1,.4-.4,.8-.8,1.2-1.2,0,0,.2-.2,.2-.4,0-.9,0-1.8,0-2.7ZM47,9c0,.3,0,.6,0,.9,0,.2,0,.3,.3,.2,2.7,0,5.5,0,8.2,0,.2,0,.3,0,.5,0,0,0,0,0,0,0,0-2.5,0-5,0-7.5,0-.2-.1-.2-.3-.2-.6,0-1.2,0-1.8,0,0,0-.1,0-.2,0,0,1.2,0,2.4,0,3.6,0,.7,0,1.3,0,2,0,.6-.4,1-1,1.1-.3,0-.5,0-.8,0-1.6,0-3.2,0-4.9,0Zm4.5-6.7c-1.5,0-2.9,0-4.3,0,0,0-.2,.1-.2,.2,0,1.4,0,2.8,0,4.2,0,0,0,0,0,0,1.4,0,2.8,0,4.3,0,.2,0,.2-.1,.2-.3,0-1.1,0-2.3,0-3.4,0-.2,0-.5,0-.8ZM16.8,28.7c.5,0,1,0,1.5,0,1.6,0,3.3,0,4.9,0,0,0,.3-.1,.3-.2,0-.6,0-1.1,0-1.7h-6.7v1.9Zm-7.3,36.2h0c-.9-1-1.8-1.9-2.8-2.8,0,0-.2,0-.3,0-.8,.8-1.7,1.7-2.5,2.5,0,0,0,.1-.2,.2h5.6ZM34,5.6s0,0,0,0c.9,.6,1.8,1.2,2.7,1.8,0,0,.3,0,.4,0,.5-.3,.9-.6,1.4-.9,.4-.3,.9-.6,1.3-.9h-5.9Zm16.4,29.4h0v6c.7-1,1.3-2,1.9-2.9,0,0,0-.2,0-.2-.6-1-1.3-1.9-1.9-2.9ZM13.9,7.8h5.9c0,0-.1,0-.2,0-.7-.5-1.4-1-2.1-1.4-.7-.5-.7-.5-1.4,0-.8,.5-1.5,1-2.2,1.5ZM50.4,48.4v6.1c0-.1,.2-.2,.2-.3,.5-.7,.9-1.5,1.4-2.1,.3-.4,.3-.8,0-1.2-.6-.8-1.1-1.6-1.7-2.5Zm0-20.7c.7-1,1.3-1.9,1.9-2.8,.1-.2,.1-.3,0-.5-.5-.8-1-1.6-1.6-2.3,0-.1-.2-.3-.3-.5v6.1ZM33.2,7.9c0,0,0,0,0-.1-.9-.6-1.8-1.2-2.7-1.8,0,0-.3,0-.4,0-.8,.5-1.7,1.1-2.5,1.6,0,0-.1,.1-.3,.2h6ZM7.8,39.2c0,0,0,0,0-.1-.4-.5-.8-1-1.1-1.5-.3-.6-.8-.7-1.4-.6,0,0,0,0-.1,0,0,0-.2,0-.2,.1-.5,.7-1,1.3-1.5,2,0,0,0,0,0,0H7.8ZM52.6,14.9c0,0-.1,.1-.2,.2-.6,.9-1.2,1.8-1.7,2.6,0,.1,0,.3,0,.4,.5,.9,1.1,1.7,1.7,2.5,0,0,0,.1,.2,.2v-6Zm0,13.4c-.7,1-1.3,2-1.9,2.9,0,0,0,.3,0,.4,.5,.7,1,1.5,1.4,2.2,.1,.2,.2,.3,.4,.5h0v-6Zm0,13.6h0c-.6,.9-1.3,1.8-1.9,2.8,0,0,0,.3,0,.3,.5,.8,1,1.5,1.5,2.3,0,.1,.2,.3,.3,.4h0v-5.9ZM7.2,5.6c0,0,.1,.1,.2,.1,.7,.5,1.4,.9,2.1,1.4,.7,.4,.7,.4,1.3,0,.7-.5,1.5-1,2.3-1.5H7.2Zm13.5,0s0,0,0,0c.9,.6,1.8,1.2,2.7,1.8,0,0,.2,0,.3,0,.5-.3,1.1-.7,1.6-1,.4-.3,.8-.5,1.2-.8h-5.9Zm32,49.7c0,.1-.1,.1-.1,.2-.6,.9-1.2,1.7-1.8,2.6-.1,.2,0,.3,0,.4,.5,.8,1,1.6,1.5,2.3,0,.1,.2,.3,.3,.4h0v-5.9ZM40.7,7.8h4.1c0-.7,0-1.3,0-2,0,0,0-.2-.2-.2-.3,0-.7,0-1,.2-.7,.5-1.5,1-2.3,1.5-.2,.2-.4,.3-.7,.5Zm-34.3,0c-.2-.1-.4-.2-.5-.3-.9-.6-1.7-1.2-2.6-1.8-.3-.2-.6-.1-1-.2,0,.2,0,.5,0,.7,0,0,0,0,0,.1,0,.5,0,1,0,1.4H6.4ZM63.8,61.6c-.6,0-1.1,.5-1.1,1.1,0,.7,.5,1.2,1.1,1.2,.6,0,1.1-.5,1.1-1.1,0-.6-.5-1.1-1.1-1.1Zm-5.6,1.1c0,.6,.5,1.1,1.1,1.1,.6,0,1.1-.5,1.1-1.1,0-.6-.5-1.1-1.1-1.1-.7,0-1.2,.5-1.2,1.1Zm3.3-3.4c.7,0,1.2-.5,1.1-1.1,0-.6-.5-1.1-1.1-1.1-.6,0-1.1,.5-1.1,1.1,0,.6,.5,1.1,1.1,1.1Zm.3-51.5c.1,0,.2,0,.2,0,.9,0,1.8,0,2.7,0,0,0,.2-.1,.2-.2,0-.4,0-.7,0-1.1,0-.2,0-.5,0-.8l-3.1,2Zm-11.4,54.1h0v3h2l-1.9-3ZM58.3,5.6v2l3-2h-3Zm-7.9,8.6l1.3-1.9h-1.3v1.9Z"/>
      <path class="uuid-05c2ae3a-df65-4e29-8f23-a31ce8a9f345" d="M21.2,42.5v2.2c-.2,0-.3,0-.5,0-.5,0-.9,0-1.4,0-.2,0-.3,0-.3-.3,0-.6,0-1.1,0-1.7,0-.2,0-.3,.3-.3,.6,0,1.3,0,1.9,0Z"/>
      <path class="uuid-05c2ae3a-df65-4e29-8f23-a31ce8a9f345" d="M23.5,42.5h2.2c0,.3,0,.6,0,1,0,.3,0,.7,0,1,0,.2,0,.3-.3,.2-.6,0-1.1,0-1.7,0,0,0-.3-.1-.3-.2,0-.7,0-1.3,0-2.1Z"/>
      <path class="uuid-05c2ae3a-df65-4e29-8f23-a31ce8a9f345" d="M36.9,43.7c0-.3,0-.6,0-.9,0-.2,0-.3,.3-.3,.6,0,1.1,0,1.7,0,.2,0,.3,0,.3,.3,0,.6,0,1.2,0,1.7,0,.2,0,.3-.3,.3-.6,0-1.1,0-1.7,0-.2,0-.3,0-.3-.3,0-.3,0-.6,0-.9h0Z"/>
      <path class="uuid-05c2ae3a-df65-4e29-8f23-a31ce8a9f345" d="M28,42.5h2.2c0,.1,0,.3,0,.4,0,.5,0,1,0,1.5,0,.2,0,.3-.3,.3-.6,0-1.1,0-1.7,0,0,0-.3-.1-.3-.2,0-.7,0-1.3,0-2Z"/>
      <path class="uuid-05c2ae3a-df65-4e29-8f23-a31ce8a9f345" d="M32.5,43.7c0-.3,0-.6,0-.9,0-.2,0-.3,.3-.3,.6,0,1.2,0,1.7,0,.2,0,.2,0,.2,.2,0,.6,0,1.2,0,1.8,0,.2,0,.3-.3,.3-.6,0-1.1,0-1.7,0-.2,0-.3,0-.3-.3,0-.3,0-.5,0-.8h0Z"/>
      <path class="uuid-05c2ae3a-df65-4e29-8f23-a31ce8a9f345" d="M24.6,58.2c-.3,0-.6,0-.9,0-.2,0-.3,0-.3-.2,0-.6,0-1.2,0-1.7,0-.2,0-.3,.3-.3,.6,0,1.1,0,1.7,0,.2,0,.3,0,.3,.2,0,.6,0,1.2,0,1.8,0,.2,0,.3-.3,.2-.3,0-.6,0-.9,0h0Z"/>
      <path class="uuid-05c2ae3a-df65-4e29-8f23-a31ce8a9f345" d="M36.9,57.1c0-.3,0-.6,0-.9,0-.2,0-.2,.2-.2,.6,0,1.2,0,1.8,0,.2,0,.2,0,.2,.3,0,.6,0,1.2,0,1.7,0,.2,0,.3-.3,.3-.6,0-1.1,0-1.7,0-.2,0-.3,0-.3-.3,0-.3,0-.6,0-.9h0Z"/>
      <path class="uuid-05c2ae3a-df65-4e29-8f23-a31ce8a9f345" d="M21.2,56v2.3c-.7,0-1.3,0-1.9,0-.2,0-.3,0-.3-.2,0-.6,0-1.2,0-1.8,0-.2,0-.3,.3-.3,.6,0,1.3,0,1.9,0Z"/>
      <path class="uuid-05c2ae3a-df65-4e29-8f23-a31ce8a9f345" d="M32.5,57.1c0-.3,0-.6,0-.9,0-.2,0-.3,.3-.3,.6,0,1.1,0,1.7,0,.2,0,.3,0,.3,.3,0,.6,0,1.1,0,1.7,0,.2,0,.3-.3,.3-.6,0-1.1,0-1.7,0-.2,0-.2,0-.2-.3,0-.3,0-.6,0-.9h0Z"/>
      <path class="uuid-05c2ae3a-df65-4e29-8f23-a31ce8a9f345" d="M30.2,57.1c0,.3,0,.6,0,.9,0,.2,0,.3-.3,.3-.5,0-1.1,0-1.6,0s-.3,0-.3-.3c0-.5,0-1.1,0-1.6,0-.2,0-.3,.3-.3,.5,0,1.1,0,1.6,0,.2,0,.3,0,.3,.3,0,.3,0,.5,0,.8h0Z"/>
      <path class="uuid-05c2ae3a-df65-4e29-8f23-a31ce8a9f345" d="M25.7,62.7h-2.2c0-.4,0-.9,0-1.3,0-.3,0-.7,0-.9,.1-.2,.6,0,.9,0,.3,0,.7,0,1,0,0,0,.2,.1,.2,.2,0,.7,0,1.3,0,2.1Z"/>
      <path class="uuid-05c2ae3a-df65-4e29-8f23-a31ce8a9f345" d="M36.9,62.7c0-.7,0-1.4,0-2.1,0,0,.1-.2,.2-.2,.6,0,1.2,0,1.8,0,.2,0,.3,0,.3,.2,0,.6,0,1.2,0,1.8,0,0-.1,.2-.2,.2-.6,0-1.3,0-2,0Z"/>
      <path class="uuid-05c2ae3a-df65-4e29-8f23-a31ce8a9f345" d="M36.9,47c.7,0,1.4,0,2,0,0,0,.2,.1,.2,.2,0,.6,0,1.2,0,1.7,0,.2,0,.3-.3,.3-.6,0-1.1,0-1.7,0-.2,0-.3,0-.3-.3,0-.6,0-1.3,0-1.9Z"/>
      <path class="uuid-05c2ae3a-df65-4e29-8f23-a31ce8a9f345" d="M28,38.1h2.2c0,.7,0,1.4,0,2.1,0,0-.1,.2-.2,.2-.6,0-1.2,0-1.8,0,0,0-.2-.1-.2-.2,0-.7,0-1.3,0-2Z"/>
      <path class="uuid-05c2ae3a-df65-4e29-8f23-a31ce8a9f345" d="M32.5,62.7c0-.7,0-1.4,0-2.1,0,0,.1-.2,.2-.2,.6,0,1.2,0,1.8,0,.2,0,.2,0,.2,.2,0,.6,0,1.2,0,1.8,0,0-.1,.2-.2,.2-.6,0-1.3,0-2,0Z"/>
      <path class="uuid-05c2ae3a-df65-4e29-8f23-a31ce8a9f345" d="M21.2,60.5v2.3c-.7,0-1.4,0-2,0,0,0-.2-.1-.2-.2,0-.6,0-1.2,0-1.8,0,0,.1-.2,.2-.2,.7,0,1.3,0,2,0Z"/>
      <path class="uuid-05c2ae3a-df65-4e29-8f23-a31ce8a9f345" d="M37,51.5c.7,0,1.3,0,2,0,0,0,.2,.1,.2,.2,0,.6,0,1.2,0,1.8,0,0-.1,.2-.2,.2-.6,0-1.2,0-1.8,0,0,0-.2-.1-.2-.2,0-.6,0-1.3,0-1.9,0,0,0,0,0-.1Z"/>
      <path class="uuid-05c2ae3a-df65-4e29-8f23-a31ce8a9f345" d="M28,47c.7,0,1.4,0,2,0,0,0,.2,.1,.2,.2,0,.6,0,1.2,0,1.8,0,0-.1,.2-.2,.2-.6,0-1.2,0-1.8,0,0,0-.2-.1-.2-.2,0-.7,0-1.3,0-2Z"/>
      <path class="uuid-05c2ae3a-df65-4e29-8f23-a31ce8a9f345" d="M25.7,47c0,.7,0,1.4,0,2,0,0-.1,.2-.2,.2-.6,0-1.2,0-1.8,0,0,0-.2,0-.2-.1,0-.7,0-1.4,0-2.1h2.2Z"/>
      <path class="uuid-05c2ae3a-df65-4e29-8f23-a31ce8a9f345" d="M25.7,38.1c0,.7,0,1.4,0,2.1,0,0-.1,.2-.2,.2-.6,0-1.2,0-1.8,0,0,0-.2-.1-.2-.2,0-.7,0-1.3,0-2h2.2Z"/>
      <path class="uuid-05c2ae3a-df65-4e29-8f23-a31ce8a9f345" d="M19,38.1h2.2v2.2c-.7,0-1.4,0-2.1,0,0,0-.1-.1-.1-.2,0-.7,0-1.3,0-2.1Z"/>
      <path class="uuid-05c2ae3a-df65-4e29-8f23-a31ce8a9f345" d="M23.5,51.5c.7,0,1.4,0,2,0,.2,0,.2,0,.2,.2,0,.6,0,1.2,0,1.8,0,.2,0,.2-.2,.2-.6,0-1.2,0-1.8,0,0,0-.2-.1-.2-.2,0-.7,0-1.3,0-2.1Z"/>
      <path class="uuid-05c2ae3a-df65-4e29-8f23-a31ce8a9f345" d="M33.6,51.5c.3,0,.6,0,.9,0,.2,0,.2,0,.2,.2,0,.6,0,1.2,0,1.7,0,.2,0,.3-.3,.3-.6,0-1.2,0-1.7,0-.2,0-.2,0-.2-.2,0-.6,0-1.2,0-1.7,0-.2,0-.3,.3-.3,.3,0,.6,0,.9,0h0Z"/>
      <path class="uuid-05c2ae3a-df65-4e29-8f23-a31ce8a9f345" d="M21.2,51.5v2.2c-.7,0-1.4,0-2.1,0,0,0-.1-.1-.1-.2,0-.6,0-1.2,0-1.8,0,0,.1-.2,.2-.2,.7,0,1.3,0,2,0Z"/>
      <path class="uuid-05c2ae3a-df65-4e29-8f23-a31ce8a9f345" d="M33.6,47c.3,0,.6,0,.9,0,.2,0,.2,0,.2,.2,0,.6,0,1.2,0,1.8,0,.2,0,.2-.3,.2-.6,0-1.1,0-1.7,0-.2,0-.3,0-.3-.2,0-.6,0-1.1,0-1.7,0-.2,0-.3,.3-.3,.3,0,.6,0,.9,0h0Z"/>
      <path class="uuid-05c2ae3a-df65-4e29-8f23-a31ce8a9f345" d="M19,47h2.2v2.2c-.5,0-1,0-1.6,0-.1,0-.3,0-.4,0,0,0-.2,0-.2-.1,0-.7,0-1.4,0-2.1Z"/>
      <path class="uuid-05c2ae3a-df65-4e29-8f23-a31ce8a9f345" d="M28,51.5c.7,0,1.4,0,2.1,0,0,0,.2,.1,.2,.2,0,.6,0,1.2,0,1.8,0,0-.1,.2-.2,.2-.6,0-1.2,0-1.8,0,0,0-.2-.1-.2-.2,0-.7,0-1.3,0-2Z"/>
      <path class="uuid-05c2ae3a-df65-4e29-8f23-a31ce8a9f345" d="M30.2,62.7h-2.2c0-.7,0-1.4,0-2.1,0,0,.1-.1,.2-.1,.6,0,1.2,0,1.8,0,0,0,.2,.1,.2,.2,0,.7,0,1.4,0,2.1Z"/>
    </g>
  </g>
</svg>