<svg  xmlns="http://www.w3.org/2000/svg" width="61.8" height="61.7" viewBox="0 0 61.8 61.7">

      <path  d="M47.7,5.8c-6.2,2.6-12.5,5.1-18.6,7.7-.9,.4-1.8,1.2-2.3,2.1-1,1.9-1.8,3.9-2.8,6.1,2.7,0,5.1,0,7.5,0,.3,0,.8-.4,.9-.7,.7-3.2,2.7-5.2,5.5-6.7,2.4-1.3,4.6-2.9,6.9-4.3,.2-.1,.4-.4,.7-.4,.5,0,1.1,.1,1.6,.2-.2,.5-.2,1.2-.6,1.5-2.8,1.8-5.6,3.7-8.5,5.3-2,1.1-3.1,2.7-3.5,5,1.5,.5,2.2,1.9,2.7,3.3,.5,1.4,1,2.7,1.6,4,1.9,3.9,2.7,7.9,2.4,12.3-.2,2.7-.5,3.4-3.1,4.3v1.8c.4,0,.7,0,1,0,4,0,7.1,3.3,7.1,7.2,0,4-3.2,7.1-7.2,7.1-7.2,0-14.3,0-21.5,0-3.4,0-6.8,0-10.1,0-3.8,0-6.8-2.6-7.4-6.2-.5-3.5,1.7-6.8,5.3-7.9q.9-.3,.8-2.3c-1,0-1.9,0-2.9,0-1.9,0-3.2-1.3-3.2-3.2,0-2.3,0-4.5,0-6.8,0-2,1.3-3.3,3.3-3.3,4.4,0,8.8,0,13.4,0,.6-2.4,1.2-4.7,1.8-7,.4-1.7,1.1-3.1,3.1-3.3,.2,0,.5-.5,.6-.8,.5-1.3,1-2.6,1.5-4,1-2.7,2.9-4.7,5.6-5.8,5.8-2.3,11.6-4.7,17.3-7.1,.6-.2,1.2-.8,1.5-1.4,1-1.8,2.9-2.8,5-2.5,2,.3,3.4,1.7,3.8,3.8,1.6,8.4,3.2,16.9,4.8,25.3,.2,1.2-.1,1.8-1.3,1.7-1.7-.2-2.6,.5-3.5,1.8-2,2.8-4.1,5.5-6,8.6,1.9-.2,3.9,0,5.7-.6,2.1-.6,3.1-2.3,3.2-4.5,0-.7,0-1.5,0-2.2,0-.4,.6-.8,.9-1.1,.4,.3,1,.7,1,1,.8,5.4-2.5,9.2-7.9,9.2-1.6,0-3.2,0-4.8,0-.5,0-1.3-.3-1.5-.6-.2-.4,.1-1.1,.5-1.6,2.6-3.5,5.2-7,7.8-10.5,.3-.4,.5-1.1,.3-1.6-2.7-7.5-5.4-15-8.1-22.5,0-.2-.2-.4-.3-.6ZM8.3,47.3c5.9,0,11.6,0,17.3,0,.3,0,.7-.1,1,0,.4,.2,.8,.6,1.1,1-.3,.4-.7,.8-1.1,1-.2,.1-.6,0-.9,0-6.1,0-12.2,0-18.2,0-3.2,0-5.5,2.2-5.5,5.2,0,3,2.3,5.1,5.6,5.1,10.4,0,20.7,0,31.1,0,3.2,0,5.5-2.2,5.5-5.2,0-2.9-2.3-5.1-5.4-5.1-1.6,0-3.3,.2-4.9,0-1.4-.2-3.8,1.1-3.9-.9,0-2.1,2.5-.7,3.8-1,.7-.2,1.4,0,2.1,0v-2H8.3v2Zm12.2-4.1c5.3,0,10.6,0,15.9,0,2.7,0,2.7,0,2.7-2.8,0-1.8,.3-3.8-.2-5.5-1.1-3.5-2.7-6.9-4.1-10.3-.2-.4-.9-.9-1.4-.9-3.7,0-7.4,0-11.2,0-1,0-1.4,.4-1.6,1.3-.6,2.4-1.2,4.9-1.8,7.3-.3,1.2-.8,1.8-2.2,1.7-4.3,0-8.6,0-12.8,0-1.5,0-1.7,.2-1.7,1.7,0,1.8,0,3.6,0,5.4,0,2.1,0,2.1,2.1,2.1,5.4,0,10.9,0,16.3,0Zm38.7-14.2c.2-.3,.2-.4,.2-.4-1.5-8.2-3.1-16.4-4.6-24.7-.3-1.4-1.7-2.1-3.1-1.7-1.5,.4-2.3,1.8-1.8,3.2,2.7,7.6,5.5,15.2,8.2,22.7,.1,.4,.7,.6,1,.9Z"/>
      <path  d="M9.3,51.4c1.7,0,3.1,1.4,3.1,3.1,0,1.6-1.4,3-3,3-1.7,0-3.1-1.4-3.1-3.1,0-1.7,1.4-3.1,3.1-3.1Zm0,4.5c.5-.6,1.1-1,1-1.4,0-.4-.5-.9-.9-1-.2,0-.9,.5-1,.9,0,.4,.4,.8,.9,1.5Z"/>
      <path  d="M37,51.4c1.7,0,3.1,1.4,3.1,3.1,0,1.7-1.5,3.1-3.2,3-1.6,0-3-1.4-3-3.1,0-1.7,1.4-3.1,3.1-3.1Zm1.5,3c-.7-.5-1.1-1-1.4-.9-.4,0-.9,.6-1,1,0,.2,.6,.9,.9,.9,.4,0,.8-.5,1.5-1Z"/>
      <path  d="M15.5,54.3c0-1.7,1.6-3,3.3-2.9,1.6,.1,2.9,1.6,2.9,3.2,0,1.7-1.5,3-3.2,3-1.7,0-3-1.6-2.9-3.3Zm4.5,.2c-.7-.5-1.1-1-1.4-1-.4,0-.9,.6-1,1,0,.2,.6,.9,.9,.9,.4,0,.8-.5,1.5-.9Z"/>
      <path  d="M30.9,54.5c0,1.7-1.4,3.1-3.1,3.1-1.7,0-3.1-1.5-3-3.2,0-1.6,1.4-3,3.1-3,1.7,0,3.1,1.4,3.1,3.1Zm-3.1-1.4c-.4,.6-1,1.1-.9,1.4,0,.4,.6,.7,1,1.1,.3-.4,.8-.7,.9-1.1,0-.3-.5-.7-1-1.3Z"/>
      <path  d="M26.8,33.9c-1.5,0-2.9,0-4.3,0-1.2,0-1.6-.5-1.3-1.6,.5-1.9,1-3.8,1.6-5.7,.1-.4,.7-.9,1.2-.9,2.7,0,5.4,0,8.1,0,.4,0,1.1,.4,1.2,.8,1.3,2.9,2.7,5.8,3.7,8.9,.5,1.5,.2,3.2,.1,4.8,0,.3-.8,.8-1.2,.8-1.9,0-3.8,0-5.6,0-.4,0-.9-.1-1-.4-1.1-1.7-2.8-3.1-2.4-5.4,0-.4,0-.8,0-1.4Zm2.1-6c0,2.8-.2,5.6,0,8.4,0,1,1.1,2.3,2,2.6,1.2,.5,2.7,.1,4.4,.1-.3-1.6-.5-3-.9-4.3-.6-1.7-1.4-3.4-2.1-5.1q-.9-2.1-3.4-1.7Zm-5.4,3.9h3.3v-4h-2.2l-1.1,4Z"/>
      <path  d="M4.2,38.5c0-.5-.1-1.1,0-1.5,.2-.4,.7-.9,1-.9,.3,0,.9,.5,1,.9,.1,1,.1,2.1,0,3.2,0,.4-.7,1-.9,.9-.4,0-.9-.5-1-1-.2-.5,0-1.1,0-1.6h0Z"/>
      <path  d="M10.3,38.7c0,.5,.1,1.1,0,1.5-.1,.4-.6,.9-1,.9-.3,0-.9-.5-1-.9-.1-1-.1-2.1,0-3.2,0-.4,.6-.9,1-1,.2,0,.8,.5,.9,.9,.2,.5,0,1.1,0,1.6Z"/>
      <path  d="M14.4,38.6c0,.5,.1,1.1,0,1.5-.1,.4-.6,.9-1,.9-.3,0-.9-.5-1-.9-.1-1.1-.1-2.1,0-3.2,0-.4,.7-1,.9-.9,.4,.1,.9,.6,1,1,.2,.4,0,1,0,1.5h0Z"/>
      <path  d="M52.5,3.7c.5,.7,1,1.1,.9,1.4,0,.4-.6,.7-1,1.1-.3-.4-.9-.7-.9-1.1,0-.3,.5-.7,1-1.3Z"/>
  
</svg>