<?xml version="1.0" encoding="UTF-8"?>
<svg id="uuid-303cbf46-ea85-4965-83b0-97d9d3636f43" data-name="Layer 2" xmlns="http://www.w3.org/2000/svg" width="13.4" height="13.4" viewBox="0 0 13.4 13.4">
  <defs>
    <style>
      .uuid-a954d46b-718a-4b33-844f-596bc8e3e333 {
        fill: #fff;
      }
    </style>
  </defs>
  <g id="uuid-210d3485-1dd7-45f2-8099-c9ea6e07dac3" data-name="Capa 1">
    <g>
      <path class="uuid-a954d46b-718a-4b33-844f-596bc8e3e333" d="M13.4,3.9c0-.7-.1-1.2-.3-1.6-.2-.5-.4-.9-.8-1.2-.3-.3-.7-.6-1.2-.8-.4-.2-.9-.3-1.6-.3-.7,0-.9,0-2.8,0s-2.1,0-2.8,0c-.7,0-1.2,.1-1.6,.3-.5,.2-.9,.4-1.2,.8-.3,.3-.6,.7-.8,1.2-.2,.4-.3,.9-.3,1.6,0,.7,0,.9,0,2.8s0,2.1,0,2.8c0,.7,.1,1.2,.3,1.6,.2,.5,.4,.9,.8,1.2,.3,.3,.7,.6,1.2,.8,.4,.2,.9,.3,1.6,.3,.7,0,.9,0,2.8,0s2.1,0,2.8,0c.7,0,1.2-.1,1.6-.3,.9-.3,1.6-1.1,2-2,.2-.4,.3-.9,.3-1.6,0-.7,0-.9,0-2.8s0-2.1,0-2.8h0Zm-1.2,5.5c0,.7-.1,1-.2,1.2-.2,.6-.7,1-1.3,1.3-.2,0-.6,.2-1.2,.2-.7,0-.9,0-2.7,0s-2,0-2.7,0c-.7,0-1-.1-1.2-.2-.3-.1-.6-.3-.8-.5-.2-.2-.4-.5-.5-.8,0-.2-.2-.6-.2-1.2,0-.7,0-.9,0-2.7s0-2,0-2.7c0-.7,.1-1,.2-1.2,.1-.3,.3-.6,.5-.8,.2-.2,.5-.4,.8-.5,.2,0,.6-.2,1.2-.2,.7,0,.9,0,2.7,0s2,0,2.7,0c.7,0,1,.1,1.2,.2,.3,.1,.6,.3,.8,.5,.2,.2,.4,.5,.5,.8,0,.2,.2,.6,.2,1.2,0,.7,0,.9,0,2.7s0,2,0,2.7h0Z"/>
      <path class="uuid-a954d46b-718a-4b33-844f-596bc8e3e333" d="M6.7,3.3c-1.9,0-3.5,1.5-3.5,3.5s1.5,3.5,3.5,3.5,3.5-1.5,3.5-3.5-1.5-3.5-3.5-3.5h0Zm0,5.7c-1.2,0-2.2-1-2.2-2.2s1-2.2,2.2-2.2,2.2,1,2.2,2.2-1,2.2-2.2,2.2h0Z"/>
      <path class="uuid-a954d46b-718a-4b33-844f-596bc8e3e333" d="M11.1,3.1c0,.4-.4,.8-.8,.8s-.8-.4-.8-.8,.4-.8,.8-.8,.8,.4,.8,.8h0Z"/>
    </g>
  </g>
</svg>