<?xml version="1.0" encoding="UTF-8"?>
<svg id="uuid-68e910b5-8835-4a53-a700-5fa36fd78295" data-name="Layer 2" xmlns="http://www.w3.org/2000/svg" width="21.4" height="21.4" viewBox="0 0 21.4 21.4">
  <defs>
    <style>
      .uuid-902e159a-0354-492e-869e-99dafa901b92 {
        fill: #fff;
      }
    </style>
  </defs>
  <g id="uuid-fdbaeae9-0ec3-415d-a477-c7e511fab9f4" data-name="Capa 1">
    <g>
      <path class="uuid-902e159a-0354-492e-869e-99dafa901b92" d="M21.3,6.3c0-1.1-.2-1.9-.5-2.6-.3-.7-.7-1.4-1.2-1.9-.5-.5-1.2-1-1.9-1.2-.7-.3-1.5-.4-2.6-.5-1.1,0-1.5,0-4.4,0s-3.3,0-4.4,0c-1.1,0-1.9,.2-2.6,.5-.7,.3-1.4,.7-1.9,1.2-.5,.5-1,1.2-1.2,1.9-.3,.7-.4,1.5-.5,2.6,0,1.1,0,1.5,0,4.4s0,3.3,0,4.4c0,1.1,.2,1.9,.5,2.6,.3,.7,.7,1.4,1.2,1.9,.5,.5,1.2,1,1.9,1.2,.7,.3,1.5,.4,2.6,.5,1.1,0,1.5,0,4.4,0s3.3,0,4.4,0c1.1,0,1.9-.2,2.6-.5,1.4-.6,2.6-1.7,3.1-3.1,.3-.7,.4-1.5,.5-2.6,0-1.1,0-1.5,0-4.4s0-3.3,0-4.4h0Zm-1.9,8.7c0,1-.2,1.6-.4,2-.4,.9-1.1,1.7-2,2-.4,.1-.9,.3-2,.4-1.1,0-1.5,0-4.3,0s-3.2,0-4.3,0c-1,0-1.6-.2-2-.4-.5-.2-.9-.4-1.2-.8-.4-.3-.6-.8-.8-1.2-.1-.4-.3-.9-.4-2,0-1.1,0-1.5,0-4.3s0-3.2,0-4.3c0-1,.2-1.6,.4-2,.2-.5,.4-.9,.8-1.2,.3-.4,.8-.6,1.2-.8,.4-.1,.9-.3,2-.4,1.1,0,1.5,0,4.3,0s3.2,0,4.3,0c1,0,1.6,.2,2,.4,.5,.2,.9,.4,1.2,.8,.4,.3,.6,.8,.8,1.2,.1,.4,.3,.9,.4,2,0,1.1,0,1.5,0,4.3s0,3.2,0,4.3h0Z"/>
      <path class="uuid-902e159a-0354-492e-869e-99dafa901b92" d="M10.7,5.2c-3,0-5.5,2.5-5.5,5.5s2.5,5.5,5.5,5.5,5.5-2.5,5.5-5.5-2.5-5.5-5.5-5.5h0Zm0,9c-2,0-3.6-1.6-3.6-3.6s1.6-3.6,3.6-3.6,3.6,1.6,3.6,3.6-1.6,3.6-3.6,3.6h0Z"/>
      <path class="uuid-902e159a-0354-492e-869e-99dafa901b92" d="M17.7,5c0,.7-.6,1.3-1.3,1.3s-1.3-.6-1.3-1.3,.6-1.3,1.3-1.3,1.3,.6,1.3,1.3h0Z"/>
    </g>
  </g>
</svg>