<?xml version="1.0" encoding="UTF-8"?>
<svg id="uuid-0928c4eb-27fb-4d5c-aad8-f29a9e99a53c" data-name="Layer 2" xmlns="http://www.w3.org/2000/svg" width="245.3" height="200.8" viewBox="0 0 245.3 200.8">
  <defs>
    <style>
      .uuid-61ccb9d5-dd6a-405e-af05-85c31cc112df {
        fill: #4d4d4d;
      }

      .uuid-8a2ecccd-9bb4-4a19-97f1-02717b90552f {
        opacity: .1;
      }
    </style>
  </defs>
  <g id="uuid-f0c102e8-9417-40e8-8654-2febb3615fe1" data-name="Capa 1">
    <g>
      <g class="uuid-8a2ecccd-9bb4-4a19-97f1-02717b90552f">
        <g>
          <polygon class="uuid-61ccb9d5-dd6a-405e-af05-85c31cc112df" points="30.3 138.5 44.7 152.8 64.9 132.5 84.5 152.2 98.9 137.8 64.9 103.8 30.3 138.5"/>
          <polygon class="uuid-61ccb9d5-dd6a-405e-af05-85c31cc112df" points="96.1 86.4 64.9 55.2 33.7 86.4 14.3 67.1 0 81.4 34 115.4 64.9 84.4 95.9 115.4 130.5 80.8 116.1 66.4 96.1 86.4"/>
        </g>
      </g>
      <g class="uuid-8a2ecccd-9bb4-4a19-97f1-02717b90552f">
        <g>
          <polygon class="uuid-61ccb9d5-dd6a-405e-af05-85c31cc112df" points="145.1 83.3 159.5 97.6 179.7 77.3 199.3 97 213.7 82.6 179.7 48.6 145.1 83.3"/>
          <polygon class="uuid-61ccb9d5-dd6a-405e-af05-85c31cc112df" points="210.9 31.2 179.7 0 148.5 31.2 129.1 11.9 114.8 26.2 148.8 60.2 179.7 29.2 210.7 60.2 245.3 25.6 230.9 11.2 210.9 31.2"/>
        </g>
      </g>
      <g class="uuid-8a2ecccd-9bb4-4a19-97f1-02717b90552f">
        <g>
          <polygon class="uuid-61ccb9d5-dd6a-405e-af05-85c31cc112df" points="145.1 186.5 159.5 200.8 179.7 180.5 199.3 200.2 213.7 185.8 179.7 151.8 145.1 186.5"/>
          <polygon class="uuid-61ccb9d5-dd6a-405e-af05-85c31cc112df" points="210.9 134.4 179.7 103.2 148.5 134.4 129.1 115.1 114.8 129.4 148.8 163.4 179.7 132.4 210.7 163.4 245.3 128.8 230.9 114.4 210.9 134.4"/>
        </g>
      </g>
    </g>
  </g>
</svg>